<?xml version="1.0" standalone="no"?>
<!DOCTYPE svg PUBLIC "-//W3C//DTD SVG 20010904//EN"
 "http://www.w3.org/TR/2001/REC-SVG-20010904/DTD/svg10.dtd">
<svg version="1.0" xmlns="http://www.w3.org/2000/svg"
 width="944.000000pt" height="944.000000pt" viewBox="0 0 944.000000 944.000000"
 preserveAspectRatio="xMidYMid meet">

<g transform="translate(0.000000,944.000000) scale(0.100000,-0.100000)"
fill="#000000" stroke="none">
<path d="M5004 9430 c-5 -5 -137 -14 -294 -19 -455 -16 -556 -33 -1201 -207
-706 -190 -1403 -562 -2049 -1092 -142 -116 -532 -508 -651 -655 -142 -173
-403 -526 -523 -706 -111 -167 -233 -390 -256 -469 -7 -23 -17 -42 -22 -42 -4
0 -8 -226 -7 -502 0 -277 4 -494 8 -483 5 11 25 88 45 171 145 598 399 1168
741 1659 81 116 328 385 542 591 256 245 412 376 584 492 68 45 770 473 927
565 139 81 530 240 745 303 346 100 777 168 1352 214 473 37 428 38 903 -21
244 -30 663 -108 885 -164 98 -25 215 -50 260 -56 151 -18 389 -101 617 -214
47 -24 125 -59 173 -79 148 -61 303 -143 355 -188 28 -24 110 -78 185 -121 78
-46 172 -111 222 -154 49 -42 141 -111 205 -153 148 -99 335 -254 600 -499
l90 -83 0 163 0 164 -138 140 c-332 339 -862 697 -1382 936 -296 135 -641 266
-841 319 -63 16 -202 54 -309 84 -107 29 -242 64 -300 76 -58 12 -113 26 -122
31 -24 12 -1331 12 -1344 -1z"/>
<path d="M5171 7984 c0 -11 3 -14 6 -6 3 7 2 16 -1 19 -3 4 -6 -2 -5 -13z"/>
<path d="M4155 7772 c-216 -223 -256 -278 -392 -542 -93 -179 -113 -233 -132
-355 -24 -153 -67 -602 -59 -610 2 -3 114 -5 249 -6 505 -4 1106 -30 1629 -70
194 -14 774 -71 779 -75 6 -5 -25 -104 -50 -164 l-19 -45 -93 7 c-434 34
-1094 47 -1487 29 -497 -21 -1007 -58 -1016 -72 -14 -24 -25 2 -58 139 -54
226 -93 444 -121 682 -8 69 -31 201 -50 295 -30 145 -35 189 -35 306 0 145 14
245 49 343 11 33 19 62 16 64 -3 3 -5 0 -5 -6 0 -6 -78 -89 -173 -184 -182
-181 -336 -367 -517 -620 -57 -81 -105 -146 -107 -144 -1 1 6 25 16 52 26 66
111 306 114 319 1 6 4 12 7 15 3 3 18 23 35 45 35 47 -383 -343 -501 -467
-102 -108 -407 -548 -391 -564 3 -4 66 1 139 10 163 20 302 34 306 30 6 -4
-126 -310 -180 -416 -37 -75 -53 -98 -68 -98 -60 0 -720 -154 -903 -210 -62
-19 -66 -22 -89 -73 -14 -28 -36 -81 -48 -117 -13 -36 -27 -69 -32 -74 -16
-19 -8 21 26 122 24 70 31 102 22 102 -29 0 -114 -31 -128 -47 -20 -24 -89
-232 -125 -375 -27 -109 -46 -122 -23 -15 6 29 20 112 31 186 10 73 22 144 25
157 4 15 2 24 -5 24 -18 0 -360 -124 -416 -151 -29 -14 -55 -35 -62 -50 -7
-14 -29 -99 -48 -188 -68 -308 -112 -623 -121 -860 -4 -121 -6 -127 -53 -240
-27 -64 -54 -134 -61 -156 -7 -22 -17 -45 -21 -51 -5 -6 -8 -188 -7 -405 l3
-393 47 170 c26 93 55 201 65 240 l16 72 72 -212 c86 -254 108 -304 202 -466
40 -68 73 -131 73 -138 0 -8 -18 -71 -40 -141 -42 -131 -140 -521 -205 -816
-21 -93 -55 -249 -76 -345 -22 -96 -46 -236 -54 -310 -9 -74 -22 -178 -30
-230 -8 -52 -25 -162 -36 -245 -12 -82 -25 -158 -30 -167 -5 -10 -9 -74 -9
-143 l0 -126 128 3 127 3 2 40 c11 193 96 729 173 1090 102 477 271 1130 296
1151 8 6 36 14 62 18 26 3 62 15 81 27 27 16 44 19 78 14 48 -7 48 -7 28 -92
-95 -402 -239 -1481 -289 -2170 l-6 -83 1527 0 1527 0 90 46 c177 91 196 115
196 256 l0 96 63 7 c34 3 136 5 227 3 l165 -3 -79 -27 c-72 -25 -80 -26 -107
-13 -55 29 -102 14 -117 -37 -18 -59 -22 -161 -11 -245 l12 -83 115 0 115 0
-7 53 c-4 28 -9 66 -12 83 -6 31 -4 32 79 75 47 24 88 41 90 39 2 -3 22 -59
44 -125 l40 -120 141 -3 c110 -2 142 0 142 10 0 7 -18 57 -40 112 -37 93 -39
103 -34 180 4 65 -1 105 -24 206 l-28 125 -325 6 c-178 3 -337 9 -354 12 -16
4 -91 12 -165 17 -74 6 -196 15 -270 21 -218 17 -672 115 -900 194 -139 49
-361 151 -479 222 -121 72 -524 339 -599 397 -136 105 -262 261 -262 327 0 13
-7 42 -15 64 -8 22 -14 47 -15 55 0 9 50 85 110 170 l111 155 -41 7 c-62 11
-95 41 -136 123 -45 91 -44 144 3 203 48 60 104 85 201 90 l83 5 -8 31 c-10
40 -6 581 7 886 18 419 49 825 71 940 20 104 200 568 336 869 299 661 595
1149 910 1500 l67 74 58 -234 c32 -129 72 -317 88 -418 74 -453 178 -836 347
-1281 78 -205 171 -391 242 -487 84 -113 122 -129 174 -75 35 37 54 94 77 236
11 65 21 121 23 122 2 2 32 -32 66 -75 110 -140 467 -474 608 -570 77 -53 211
-111 253 -111 41 0 90 47 90 87 0 15 -7 69 -14 118 -8 50 -13 91 -12 92 1 1
33 -34 71 -78 83 -95 201 -179 254 -179 45 0 97 52 106 106 15 84 26 113 64
155 68 78 170 219 223 308 138 233 318 611 418 881 24 63 58 145 76 181 32 65
35 68 116 107 105 51 391 241 441 292 57 60 49 120 -17 120 -35 0 -111 -40
-271 -146 -66 -43 -124 -81 -128 -83 -5 -2 3 19 16 45 80 158 204 521 237 691
11 59 22 109 25 111 2 2 16 -20 31 -50 14 -29 71 -133 125 -230 84 -149 117
-222 213 -475 63 -164 137 -356 165 -426 122 -304 167 -458 312 -1057 153
-633 200 -837 275 -1205 73 -357 142 -674 150 -687 3 -4 23 -8 44 -8 51 0 126
-26 168 -57 89 -67 95 -213 12 -288 -34 -30 -154 -193 -188 -255 -25 -44 -41
-106 -82 -304 -28 -137 -64 -297 -79 -354 l-27 -105 -51 -2 c-45 -2 -81 -18
-294 -132 -477 -256 -530 -278 -899 -373 -300 -78 -584 -156 -617 -170 -17 -7
-23 -18 -23 -41 0 -19 -10 -43 -25 -61 -23 -27 -25 -38 -25 -120 l0 -90 -192
-198 c-105 -109 -195 -205 -200 -214 -8 -14 10 -16 179 -16 l188 1 140 150
c77 82 148 159 158 171 10 11 20 18 24 14 8 -8 63 43 63 58 0 6 -11 -2 -25
-18 -14 -16 -27 -27 -30 -24 -3 2 8 17 24 32 l28 27 16 -24 c9 -14 40 -53 69
-88 29 -35 53 -70 55 -78 1 -8 -31 -49 -72 -90 -40 -42 -83 -88 -95 -104 l-21
-27 188 0 189 0 59 75 c69 87 145 224 145 261 0 45 -27 82 -69 95 -36 11 -44
9 -85 -14 l-45 -25 -46 62 -45 61 27 12 c16 7 39 12 54 13 14 0 83 20 154 44
71 25 132 43 137 40 18 -12 54 -185 88 -425 12 -86 21 -108 72 -167 l27 -32
935 0 936 0 0 44 c0 25 6 96 14 158 8 62 20 181 25 263 6 83 14 182 17 220 10
129 6 848 -5 1030 -6 99 -20 279 -31 400 -26 286 -39 506 -32 525 9 26 85 151
89 147 4 -4 40 -416 62 -707 23 -294 51 -624 85 -990 30 -330 33 -391 25 -505
-4 -71 -6 -232 -2 -357 l6 -228 109 0 108 0 0 925 c0 509 -3 925 -7 925 -4 0
-29 -21 -55 -47 -28 -27 -48 -41 -48 -33 0 8 -5 116 -10 240 -17 379 -41 646
-81 897 l-21 132 42 106 c51 132 77 231 90 349 29 258 41 309 76 323 12 4 14
104 14 713 l0 708 -48 15 c-26 9 -55 19 -64 22 -13 5 -16 -22 -22 -227 -12
-406 -36 -752 -52 -768 -6 -6 -10 81 -11 233 0 243 -6 309 -58 641 -22 148
-31 172 -63 185 -64 25 -255 72 -262 65 -11 -11 -40 -173 -40 -223 0 -73 -17
-62 -23 16 -7 86 -41 221 -61 241 -11 12 -105 42 -131 42 -6 0 -10 -81 -11
-221 -2 -225 -15 -308 -27 -167 -10 115 -72 400 -90 413 -17 12 -306 77 -717
161 -145 30 -267 57 -271 62 -9 9 -69 193 -69 210 0 9 9 12 28 8 15 -3 146
-28 292 -56 146 -29 348 -69 450 -90 276 -56 253 -54 247 -27 -19 86 -57 280
-62 317 -6 43 -5 44 11 25 30 -36 91 -178 119 -275 14 -52 30 -99 34 -103 7
-7 131 -37 152 -37 4 0 10 37 14 83 9 113 22 159 43 155 24 -5 67 -98 87 -189
9 -45 23 -83 31 -86 7 -2 58 -15 114 -27 82 -19 100 -21 100 -9 0 51 -117 463
-205 723 -84 248 -137 357 -264 550 -85 127 -124 175 -219 269 -98 95 -246
228 -419 375 l-34 28 26 -38 c28 -41 44 -59 30 -34 -5 8 -4 12 0 7 5 -4 10
-15 11 -25 1 -9 19 -60 39 -112 36 -93 85 -281 85 -330 0 -14 14 -90 30 -170
17 -79 39 -214 50 -300 19 -142 31 -205 47 -247 4 -11 2 -14 -5 -9 -6 3 -26
38 -46 76 -51 103 -132 223 -227 335 -46 55 -100 121 -118 148 -37 50 -49 61
-30 25 26 -48 40 -130 49 -283 12 -201 12 -302 2 -289 -5 5 -32 70 -61 144
-30 74 -71 171 -93 215 -79 157 -245 391 -345 486 -65 62 -250 213 -303 249
-19 13 -57 44 -84 69 -45 42 -47 43 -24 11 54 -74 104 -213 138 -385 12 -60
34 -164 50 -230 16 -66 36 -167 45 -226 8 -58 22 -127 30 -155 38 -125 7 -75
-53 86 -27 74 -73 191 -100 261 -28 69 -58 152 -67 185 -35 120 -97 270 -125
299 -15 17 -51 75 -78 130 -86 173 -133 220 -193 195 -36 -15 -51 -52 -44
-108 8 -60 -70 -540 -90 -561 -6 -5 -20 32 -62 164 -51 164 -66 206 -126 370
-31 83 -61 181 -68 218 -13 68 -29 90 -29 40 0 -16 -7 -58 -15 -96 -18 -88
-107 -367 -117 -367 -4 0 -10 17 -14 38 -3 20 -22 115 -41 211 -18 96 -37 211
-40 255 l-7 81 -12 -40 c-14 -48 -27 -75 -178 -368 -65 -126 -122 -225 -126
-220 -17 18 -113 332 -118 385 l-5 58 -32 -78 c-42 -103 -213 -399 -220 -381
-17 46 -105 587 -106 651 0 43 -1 43 -19 -23 -19 -67 -179 -476 -243 -622 -19
-43 -38 -78 -43 -78 -5 0 -15 29 -22 63 -15 70 -22 408 -9 448 l8 25 -18 -25
c-10 -14 -41 -52 -70 -85 -29 -33 -113 -134 -187 -225 -133 -165 -187 -253
-256 -422 -13 -32 -27 -58 -31 -58 -11 0 -19 207 -21 530 -3 329 6 395 62 484
16 25 29 46 27 45 -1 0 -88 -89 -192 -197z"/>
<path d="M2358 7752 c-82 -60 -90 -66 -404 -262 -239 -150 -293 -188 -484
-341 -253 -201 -298 -250 -482 -519 -47 -69 -114 -174 -149 -235 -34 -60 -89
-150 -122 -198 -55 -82 -154 -283 -145 -293 4 -3 330 67 388 84 26 8 31 17 96
154 41 88 97 158 125 158 29 0 24 -39 -20 -169 l-39 -113 41 6 c69 11 89 27
133 105 69 124 152 206 168 165 6 -15 -27 -152 -44 -183 -16 -30 -12 -42 13
-37 12 3 87 15 165 27 125 19 145 25 152 43 5 12 21 77 35 146 30 139 65 257
101 339 19 42 22 56 12 62 -7 5 -15 5 -19 1 -3 -4 -34 -43 -69 -87 -100 -126
-134 -165 -141 -165 -10 0 43 198 97 360 48 141 93 241 146 319 18 25 25 41
17 34 -8 -6 -39 -48 -69 -92 -30 -44 -58 -81 -62 -81 -15 0 -7 29 15 57 13 15
43 60 69 98 25 39 75 115 111 170 121 185 265 351 407 468 67 55 46 44 -42
-21z"/>
<path d="M8782 7370 c10 -36 25 -110 33 -165 8 -55 24 -152 34 -215 11 -63 27
-160 35 -215 20 -131 100 -378 236 -724 60 -153 123 -324 140 -382 17 -57 34
-107 38 -111 7 -6 125 -48 137 -48 9 0 6 1168 -3 1174 -5 3 -30 41 -55 84 -67
113 -81 130 -361 412 l-252 255 18 -65z"/>
<path d="M1950 6791 c-22 -33 -44 -63 -50 -66 -15 -9 -12 -25 6 -25 8 0 13 4
10 9 -4 5 -2 11 2 13 9 3 84 128 77 128 -2 0 -22 -27 -45 -59z"/>
<path d="M2652 6360 c-58 -54 -38 -102 97 -234 143 -138 308 -256 359 -256 33
0 72 38 72 70 0 48 -9 59 -127 146 -62 47 -160 133 -217 190 -113 113 -139
125 -184 84z"/>
<path d="M9388 5414 c24 -9 46 -13 49 -10 10 10 1 13 -47 20 l-45 6 43 -16z"/>
<path d="M6819 5347 c-57 -16 -93 -42 -156 -110 -200 -219 -240 -606 -172
-1652 5 -82 14 -220 19 -305 30 -471 39 -528 99 -690 60 -161 121 -224 248
-257 60 -16 107 -12 193 13 60 18 104 54 131 106 24 46 49 169 49 238 l0 47
-47 7 c-59 8 -107 36 -133 78 -22 35 -21 97 1 214 14 72 58 114 130 122 l54 7
8 80 c15 151 -4 1039 -33 1535 -23 395 -46 464 -178 533 -82 43 -144 53 -213
34z"/>
<path d="M2686 5277 c-118 -38 -183 -114 -235 -278 -65 -202 -91 -617 -72
-1164 6 -198 14 -389 16 -425 2 -36 9 -173 14 -305 15 -346 33 -456 84 -532
57 -83 70 -88 214 -85 101 3 135 7 169 24 50 23 97 73 120 126 14 33 53 192
54 218 0 6 -31 10 -82 10 -66 -1 -90 3 -117 19 -83 49 -94 114 -40 223 48 95
77 112 189 112 l87 0 6 293 c9 392 8 770 -2 892 -5 55 -17 195 -26 310 -30
378 -48 466 -111 529 -61 61 -146 71 -268 33z"/>
<path d="M5295 1919 c-11 -7 -43 -33 -71 -58 -59 -54 -282 -183 -361 -210 -49
-17 -61 -17 -121 -5 -165 32 -316 98 -462 203 -111 80 -150 81 -150 5 0 -37
23 -73 77 -125 121 -116 308 -210 521 -260 132 -32 191 -16 422 114 232 131
280 173 280 250 0 67 -80 118 -135 86z"/>
</g>
</svg>
